<?xml version="1.0" standalone="no"?><!DOCTYPE svg PUBLIC "-//W3C//DTD SVG 1.1//EN" "http://www.w3.org/Graphics/SVG/1.1/DTD/svg11.dtd"><svg t="1693106858279" class="icon" viewBox="0 0 1024 1024" version="1.1" xmlns="http://www.w3.org/2000/svg" p-id="4051" xmlns:xlink="http://www.w3.org/1999/xlink" width="200" height="200"><path d="M211.5 595.5l434.2-434.2c18.4-18.4 48.3-18.4 66.8 0L946.2 395c18.4 18.4 18.4 48.3 0 66.8L545.4 862.6c-18.4 18.4-48.3 18.4-66.8 0L211.5 595.5z" fill="#FFEA00" p-id="4052"></path><path d="M478.6 862.6L77.8 461.9c-18.4-18.4-18.4-48.3 0-66.8l233.7-233.7c18.4-18.4 48.3-18.4 66.8 0l400.8 400.8c18.4 18.4 18.4 48.3 0 66.8L545.4 862.6c-18.5 18.5-48.3 18.5-66.8 0z" fill="#536DFE" p-id="4053"></path><path d="M345 729.1L77.8 461.9c-18.4-18.4-18.4-48.3 0-66.8l233.7-233.7c18.4-18.4 48.3-18.4 66.8 0l400.8 400.8L345 729.1z" fill="#3D5AFE" p-id="4054"></path><path d="M294.8 344.9c-9.2-9.2-9.2-24.2 0-33.4L411.3 195c55.5-55.5 145.4-55.5 200.9 0L462.3 344.9c-46.3 46.2-121.3 46.2-167.5 0z" fill="#FFEA00" p-id="4055"></path></svg>