<?xml version="1.0" standalone="no"?><!DOCTYPE svg PUBLIC "-//W3C//DTD SVG 1.1//EN" "http://www.w3.org/Graphics/SVG/1.1/DTD/svg11.dtd"><svg t="1693107096097" class="icon" viewBox="0 0 1024 1024" version="1.1" xmlns="http://www.w3.org/2000/svg" p-id="9138" xmlns:xlink="http://www.w3.org/1999/xlink" width="200" height="200"><path d="M139.636364 0h744.727272a139.636364 139.636364 0 0 1 139.636364 139.636364v744.727272a139.636364 139.636364 0 0 1-139.636364 139.636364H139.636364a139.636364 139.636364 0 0 1-139.636364-139.636364V139.636364a139.636364 139.636364 0 0 1 139.636364-139.636364z m489.968484 590.149818a237.955879 237.955879 0 0 0-136.269575-88.824242 132.06497 132.06497 0 0 0-53.946182-252.633212c-82.990545 0-132.142545 64.853333-132.142546 132.033939a132.06497 132.06497 0 0 0 78.196364 120.599273C282.841212 525.094788 205.668848 615.268848 201.69697 724.076606h405.100606c-7.912727-15.515152-12.396606-33.047273-12.396606-51.665454 0-32.364606 13.513697-61.548606 35.219394-82.261334z m131.785697-41.890909a196.623515 196.623515 0 0 0-78.491151-46.08 108.993939 108.993939 0 0 0 51.665454-92.734061c0-60.260848-48.872727-109.071515-109.14909-109.071515-16.089212 0-31.340606 3.459879-45.087031 9.69697a154.220606 154.220606 0 0 1 18.214788 72.967758 154.422303 154.422303 0 0 1-41.394424 105.440969 10.658909 10.658909 0 0 0-2.296243 2.420364l-0.946424 0.977454 0.248243 0.217213a10.333091 10.333091 0 0 0 7.897212 14.863515 259.754667 259.754667 0 0 1 82.881939 70.904242 113.136485 113.136485 0 0 1 63.146667-19.130182c14.630788 0 28.594424 2.730667 41.44097 7.788606 2.249697 1.536 4.685576 3.118545 7.043878 4.685576 5.988848 3.956364 11.046788 8.192 13.529212 8.192a10.333091 10.333091 0 0 0 10.333091-10.333091c0-3.987394-10.643394-14.661818-19.037091-20.821333z m-53.31006 31.138909a93.013333 93.013333 0 1 0 0 186.026667 93.013333 93.013333 0 0 0 0-186.026667z m51.665454 103.330909h-41.332363v41.301334a10.317576 10.317576 0 1 1-20.666182 0v-41.285819H656.446061a10.333091 10.333091 0 1 1 0-20.681697h41.316848V620.761212a10.317576 10.317576 0 1 1 20.666182 0v41.316849h41.316848a10.317576 10.317576 0 1 1 0 20.681697z" fill="#1AA5DD" p-id="9139"></path></svg>